<mxfile host="Electron" agent="Mozilla/5.0 (Windows NT 10.0; Win64; x64) AppleWebKit/537.36 (KHTML, like Gecko) draw.io/22.1.2 Chrome/114.0.5735.289 Electron/25.9.4 Safari/537.36" modified="2025-09-02T16:30:56.779Z" etag="eYRoVBUgIc7pOegEV00a" version="22.1.2" type="device">
  <diagram name="Страница — 1" id="abJYPYMFbEcGzYzxL49b">
    <mxGraphModel dx="3663" dy="2825" grid="1" gridSize="10" guides="1" tooltips="1" connect="1" arrows="1" fold="1" page="1" pageScale="1" pageWidth="827" pageHeight="1169" math="0" shadow="0">
      <root>
        <mxCell id="0" />
        <mxCell id="1" parent="0" />
        <mxCell id="bxKveWsEymNf4CmPTTgD-1" value="" style="strokeWidth=3;shadow=0;align=center;html=1;shape=mxgraph.mockup.containers.browserWindow;rSize=0;strokeColor2=#008cff;strokeColor3=#c4c4c4;mainText=,;recursiveResize=0;strokeColor=#B8B8B8;" parent="1" vertex="1">
          <mxGeometry x="-560" y="-710" width="1910.53" height="1320" as="geometry" />
        </mxCell>
        <mxCell id="bxKveWsEymNf4CmPTTgD-2" value="VoteUP" style="strokeWidth=1;shadow=0;dashed=0;align=center;html=1;shape=mxgraph.mockup.containers.anchor;fontSize=17;fontColor=#666666;align=left;whiteSpace=wrap;" parent="bxKveWsEymNf4CmPTTgD-1" vertex="1">
          <mxGeometry x="60" y="12" width="110" height="26" as="geometry" />
        </mxCell>
        <mxCell id="bxKveWsEymNf4CmPTTgD-3" value="https://www.voteup.com" style="strokeWidth=1;shadow=0;dashed=0;align=center;html=1;shape=mxgraph.mockup.containers.anchor;rSize=0;fontSize=17;fontColor=#666666;align=left;" parent="bxKveWsEymNf4CmPTTgD-1" vertex="1">
          <mxGeometry x="130" y="60" width="250" height="26" as="geometry" />
        </mxCell>
        <mxCell id="bxKveWsEymNf4CmPTTgD-6" value="" style="html=1;shadow=0;dashed=0;fontSize=16;align=left;spacing=15;rounded=0;strokeColor=#a2acb0;fillColor=none;recursiveResize=0;" parent="bxKveWsEymNf4CmPTTgD-1" vertex="1">
          <mxGeometry y="110" width="1910" height="120" as="geometry" />
        </mxCell>
        <mxCell id="BYVF291YmoC0x2KXtBpM-8" value="" style="shape=parallelogram;perimeter=parallelogramPerimeter;whiteSpace=wrap;html=1;fixedSize=1;fillColor=#13eed6;strokeColor=none;" parent="bxKveWsEymNf4CmPTTgD-6" vertex="1">
          <mxGeometry x="310" width="1300" height="90" as="geometry" />
        </mxCell>
        <mxCell id="bxKveWsEymNf4CmPTTgD-14" value="&lt;font color=&quot;#13eed6&quot;&gt;Поиск...&lt;/font&gt;" style="html=1;shadow=0;dashed=0;shape=mxgraph.bootstrap.rrect;rSize=5;fontSize=14;fontColor=#6C767D;strokeColor=#C2DAD8;fillColor=#ffffff;align=left;spacing=10;strokeWidth=2;" parent="bxKveWsEymNf4CmPTTgD-6" vertex="1">
          <mxGeometry x="1" width="180" height="40" relative="1" as="geometry">
            <mxPoint x="-1078" y="25" as="offset" />
          </mxGeometry>
        </mxCell>
        <mxCell id="bxKveWsEymNf4CmPTTgD-17" value="Войти" style="html=1;shadow=0;dashed=0;shape=mxgraph.bootstrap.rrect;rSize=5;strokeColor=none;strokeWidth=1;fillColor=#3d5e5e;fontColor=#FFFFFF;whiteSpace=wrap;align=center;verticalAlign=middle;spacingLeft=0;fontStyle=0;fontSize=16;spacing=5;" parent="bxKveWsEymNf4CmPTTgD-6" vertex="1">
          <mxGeometry x="1773.6280508474576" y="19.285714285714285" width="80.93220338983052" height="51.42857142857142" as="geometry" />
        </mxCell>
        <mxCell id="bxKveWsEymNf4CmPTTgD-27" value="&lt;b style=&quot;&quot;&gt;&lt;font color=&quot;#3d5e5e&quot;&gt;Регистрация&lt;/font&gt;&lt;/b&gt;" style="html=1;shadow=0;dashed=0;shape=mxgraph.bootstrap.rrect;rSize=5;fontSize=14;fontColor=#ffffff;strokeColor=#3d5e5e;fillColor=none;strokeWidth=2;" parent="bxKveWsEymNf4CmPTTgD-6" vertex="1">
          <mxGeometry x="1631.9966949152542" y="19.285714285714285" width="131.51483050847457" height="51.42857142857142" as="geometry" />
        </mxCell>
        <mxCell id="BYVF291YmoC0x2KXtBpM-9" value="" style="shape=image;verticalLabelPosition=bottom;labelBackgroundColor=default;verticalAlign=top;aspect=fixed;imageAspect=0;image=data:image/png,iVBORw0KGgoAAAANSUhEUgAAA8YAAADnCAYAAADciU/PAAAACXBIWXMAAJnKAACZygHjkaQiAAAAGXRFWHRTb2Z0d2FyZQB3d3cuaW5rc2NhcGUub3Jnm+48GgAAIABJREFUeJzs3Xl4VdW5BvD32ydhUiAnCaLVKqUoORFxQusAgTi21uk6RKuQQ4oah9bO1dpaxLb36m1ve/VaK1bMgGgb56FWW22Y1dZ5IOCIMyQ5SUBIAjlnf/ePE1qqDEnO2nvtfc77ex7+KJBvvQQb8u291rdEVUFERNnlqIqKoZEhQyYC2A/AfgJ8ASK7KzAaIqNEdRCAIQCG9n7IOgAugA1QXQORZgAfQ/UNqL7uAk3Lxo17Q2fPdu38iYiIiIi8I8XtTQ22QxDluj1vuzdv5KtvJE3UclWfXlJX92sTtcKivLw8L7X33vUikmeinrruo4vr62tN1PLLEdOnj8iPRI6FyLGiegSAAwEY+XxsZR2AZwR4KuU4j31u48Z/NDQ0pAyvYdzUePxbEDnado6sp/r2orq6KzMtU1ZZOVMc5yQTkXLc64tqa3/Sl98oIp8DcLnHefqiTVX/23aIvhCREwGU284BYLGqPur1IiJyEoAyr9cJqBSA9QA2AUj0/mgF8L6qfmwzWJ9Vyx6YG5KsFuWp6tm2QxDlumR0RKOqGvkHVoBpFRUVN4ShYTFF9957CoCvGdsB4zh1Zgp5a8r550edvLwKFzhnUCQyGUA+vN0FNBLACQqc4Lju7DVDhybK4vFHobpg9+7uJ4L635wCXwL/rfPDcyaKqMhB/Psy4ql+/N7RAK7wKkg/vAMgFI0xgCkIxufMAeB5Y4z0Q4Dv+7BOqIhIN4DVAN4E8BKAFwG8oKpv2cz1GYrrUCmXol432o4SZKbfJhDRAHTtOfppmHvyPGrNsGFHAFhmqF7guSKnGmwI1+06YsQTpop5oWzmzKNV9XLJyztNgcFiL0oRgBkQmbFm6NCPyyora938/JuWzpv3kb1IREREvhkCoKT3x8lbflJE1gBYBGAhgMdV9R0r6f4ZCPtgKH6KYDzMCSzHdgAiAtZPLHkZ6W2qZrjuqcZqhYHJP6/qI4/eeOMmY/UMKpsx4/SyePwZqC4VoALAYNuZtrIHRH7kJJPvlMXj9VPi8f1sByIiIrJkdwDnAPgdgLdF5HkRuVpESixm+i4ukYMtrh94bIyJAsAdMqgHqo+YqqciOdMYl1dWToDIWFP1VOReU7VMmTpzZllZPL4cjnM/gMNt59mJQQBmCPDalHj8lsmzZn3OdiAiIiLLDgZwLYAmEXlWRC4SkV18zpAHF3NRIRGf1w0NNsZEAWGyIROgJFfe2CWB0wyW25Dq6nrMYL2MlFdV7V4Wj9er6kIAR9rO0095AlQ7yeQbU+PxayZUVAyyHYiIiCgADgUwF8C7InKNiBT6uPZhiOISH9cLFTbGRAHR25AZG4rg5MhbYxE5xVQtBR5d3tDQZapeJsoqKy9Mue5KADMAWDxGnLFhCswuGjr0mbJ4fKLtMERERAFRBGA2gNUi8gsRGeHTuv+JC2Uvn9YKFTbGRAGxvKGhS0SMTZZ0gaxvjI8477zRAA4zVlD1HmO1Buj46uqRZTNn3gWRW5GeAp0VFDgIwN+nxONXyJw5/LeHiIgobTiAqwC8ISKXmLp6cofrRXCjx2uEEr85IQoSVXPbqVWPKj/vvGJT9YJoUF7eqTD3dawrr7v7z4ZqDciUGTMO3NTd/RJUz7WZw0ODBbhuyltvNUyqrh5mOwwREVGA7AbgZgDPicihnq6k+A9Uy+merhFCbIyJAsTp6voTAFNbeSNufv5XDdUKJhFj54sFeKyxoWGDqXr9NTke/4o4zmIA+9jK4BuRM4d1dy+fEo/vbTsKERFRwEwE8FTv+WMv3x7fjGrJmp1pJrAxJgqQ3sbsL6bqZfN26hMrK3cBcIypegrcZ6pWf5VVVs50gIcB+HW+KAgOFGDxlFmzjE0UJyIiyhL5SJ8//puIeHW7wx5Q/Myj2qHExpgoYNTkdmrgxPKqqiGm6gVJp8gJAIYaKtejyeSfDNXql7LKygshMg9ALl6fsI8kk8vKpk8vtR2EiIgogKYAeF5EJntSXXAZLpaw3XrhGTbGRAGTF4k8DGCzoXK7uKmUsbeqQSKAsWnUAP6yZMGCdoP1+qSssvJciNyC3P5avLtEIn+Z+vWvf952ECIiogAaDeAJETnHg9oOFHNRLfke1A6dXP5mjCiQGmtqOgR40lQ9NwuvbZI5cxwVOclUPZN3SPfVlKqqaRCpBb8OQ4E93VTq0fKqqgLbWYiIiAJoMIAFInKxB7UPAPBtD+qGTs5/Q0YUSGa3U58iImG+B/czprzzzpGiOtpQueRg1YcM1eqT8hkzxonrPoD0P3QEQIAJrmp9tv23SkREZEgEwM0iUu1B7WtwqeT8zA82xkQBlC/yAICkoXKfmzpz5iRDtYLBdY29BVeRxifq6hKm6u1MeVXVkJTjNCCL7ig2RVVPmVxZ+UPbOYiIiAJKkG6Ozzdcdxhc3Gy4ZuiwMSYKoN5GbZGpeqlUKqu2U6vB7eHiur5Oo3ZTqRsAHOznmp+iANoBvCPAiwAWA3gKIisAfADA2pVVACDAz6fF4xwEQkREtG0OgBoRmWa0quJEXCTnGq0ZMl7ejUVEmRC5F6rHmiklpwK42kQt26bE4/sJUGKoXCoSiTxgqNZOTZ058wQVudCv9Xo1Q+RRqD7vuO6L3aovPX3HHet39AFT4vG9HZGD1HUPAnAkRI5F+uoIP+SlgNvLq6oObqyp6TZRUET+4Kq+ZKKWCQIcCcDEHdzLNH3NVyA4wBrbGT7lQQWesh3CGtWPbEcgIs/kA7hHRL6kqm8Zqyr4X1wqj+Nm9X0gaRCwMaawewuiL0LlTNtBTIuI3J9SvQlmdnZMLK+qGtNYU7PaQC2rHJFTVdVUuWWNNTW+fDM/edas4Y7q75HeBuW1dQr8QUTu3r2zc2FDQ0OqPx+8pK7uPQDvAXgIAI664ILC/M2b/0NFvgbAyMOaHRGgJJVK/RTAVSbqLaqtfQi9f5YgmFpZeZmKZNwYK/Dskrq6601kylJPLKmru8l2CCIijxQBaBCRI1XV1G0mo+HiegAXGaoXKtxKTWG2wYX8R6Kg9GwAVwLo1zf/QddYU7NGRZaZqpdUzYrt1C5g8s9xj8FaO+T09PwEwN4eL7NBgOuT+fljl9TVXby4tvbJ/jbF27L8ttvaFtXXz1tcV3ecuu5BInK3ibA7JPL9KfH4fp6vQ0REFF6HALjWaEXFBbhQsvKqz51hY0xhpao6qy1a8ooC2hqNXa+qJyN9djJrOCanU2dBY1x+3nnFonqUoXIaSaXuN1Rrh6ZWVn4BIpd7uISqyG+T+fn7LKqru3L5bbe1ebXQkvnzX1pUW1sBkckAXvNqHQD5DnCdh/WJiIiywQ9EpMxgPYGD36FKhhisGQpsjCmk9PpEYWnD1j+TKCx9zIno4QBetRTKvEjkPqSHJZlQFvZ7YpODBp2E9HUFGRPgmcY77vjARK2dUZFfAPDqH5gPHNc9cUlt7Te8bIg/bXFt7bKI40wC8CsArhdrKPAfZTNnHu1FbSIioizhALhNRExeAbkf8pFzt0SwMabwETyRiJb+ZFu/1Dyi9E0nqUdCxLctsl5adPvt7wvwjKFy+UnVrxiqZYeqiYFFaSLG3sbvyOQZM8YDqPCo/JMRxzlg4fz5f/Wo/g411tR0L66r+4EDHAdgnSeLqP7Uk7pERETZY18A3zZaUXAVLpSY0ZoBx8aYwmb15kjka7qD88TNo0o3JApKKpAl544VMHadkJg9n+urky6/fLAAx5uq56bfxnvOiUSuhKG33FsTkYcjjnNyY01Nh+na/bWwrq4xojoZgBdTcE+YVlV1mAd1iYiIssnVIvI5g/UGw8EtEPFjaGggsDGmMOkSB2euH75f685+YzadO9a8PHNvNlW/Mqm62q9rd4xav27dMQCGGykm8vySefPeNlJrB8pmzNgDqud7UPou5913zzB1nZEJjfX1r7queww8aI5d18257VxERET9tAuAHxmuWYZqzDRcM7DYGFNYqCqqWkbGnu/PB2XDueMl8+a9DZF+/bl3YOTQ7u6phmr5Sszc+7qFL1vtVeTrMH//7zO7jhxZ1djYmDRcN2NL589f5TrOmQA2GS59+uRZs0w+BSciIspGF4nIGKMVFb/CJbKb0ZoBxcaYwuK/E4WxPw7kA7Pi3LHJ6dQh3E4tIiLAV03Vc1Mpz7dRS1qVyZoqsjaSSp316I03mm48jVlaU/M0VM2ecwLynGRypuGaRERE2WYQgO8brlkIF/9juGYgsTGm4BM8kYjGfpxJiU+dO/Zkgq6XXNc1OSjqFIO1fHH0jBmHAtjLRC0FXl06f/4qE7V2pCwenwLgiwZLquO65/k1STsTi+vrb4HIHwyXjRuuR0RElI3iIjLScM3puFiMzXkJKjbGFHTv7mzYVl9tOXfsInznjpfOn79KzW0HHzNlxowDDdXyRSi3UaueZbjkHxbV1//NcE3PRES+A2C9wZL7lcXjEw3WIyIiyka7AjC6Yw0AoLgVlbKL8boBwsaYgqxLHJzRl2Fb/dEWLf1zGM8dO4C57dSOE6rt1CJiLK/6sKU+vfMbpxss2ZlKJk0P1PBUY03NGgDXGy5r+mEDERFRNqr2oOYYDENGOziDjo0xBZYAX+/vsK2++te5Y3Nndz3nODl5zri8qmoMAFNvClctra19zVCt7Zo8ffpEAJ83VU+B/162YMG7pur5JeI4vwbwnrGCIsbOmRMREWWxEhE5yHhVxQ9wkQd1A4KNMQWSAr9sicZMn1H8N+lzx6VnIyTnjhfV1LyiwEoTtRQ4tHz6dCNndr3muq6xbdTi0wA2ESk3WG6Tq/o7g/V801hT0w3V3xorqHpQ+XnnFRurR0RElL3O8aBmHoC5qJCIB7WtY2NMwaN4si269ip/lvq3c8cdfqyZCVG931SplOOcbKiWp9TksDCD0713yGxj/Idl9fXNBuv5SlOp3wPYaKick8rPn2aoFhERUTbz5viR4HAUeLJV2zo2xhQ0727Oj5yrmObrHa29544PA+D5NttMqMnt1AbP7XqlvKqqAECZoXLvLKqre8FQrZ05ylQhx3HMvXG1YMmCBe2iusBYQZGjjdUiIqKw+R8AhT79+AKAgwAcA+C7ABYAaPP+j2jMOBEZ60llwX/hEtnTk9oWsTGmIOkSR840PWyrr3rPHR8R5HPHS2prn4Pq2yZqKXDM5Fmzhpuo5RXXdU8CkG+onC/bqI8+//x9AJja7rt6YU3NPwzVskZMXt2keoixWkREFDZdqtru04/VqvqSqjaq6m9UdTqAPZAervm05c9DX53gUd0RcHGDR7WtYWNMwSFyScvIkudsRgjDuWN1HFPbqQc7qZRXXzCNUBFj26jVp23UEcc52FgxkceM1bJow5AhSwGsM1TuIJkzh/92ERGR71R1s6o+iPTOsLMAtFiOtDPHelj7TFwsJq/TtI7fXFAgKORXrQUldbZzAP86d+ykz7YG7txxxGCDJ64b2O3Uk6qr86H6ZUPlPlg6f/7fDdXaIYlEJpiqpap/MVXLpmfnzu0RwNQdzCOmrV69t6FaRERE/aZp9wI4GMBy23l24EueVlf8H2ZJoHcf9gcbY7JP8WRbdE3g7mhtjsYedSI4HAE7d7yovv5pAB+YqKUiJ1VUVARysuCwTZvKABSYqCWq96mqmqi1M6pq6jyP25NKPWmolnUmm/yU6hdN1SIiIhooVf0QwPEAFtvOsh2fF5HdvayPPFzrYX1fsTEm297NH5T/Nb+HbfVV84jYG05Sj4DiPttZtuht8Extpy5eO2xYMIcZqZq7pknVl/PFAADVLxiq9O7Td9yx3lAt+xznFWO1XNebYSJERET9pKqdSO8yXGU7y3aYO+K1bZfjQjnC4zV8wcaYbOoWR878eNdxgT6f0TyqdEOiMHYWgnTu2OB2ahcI6nZqI+eLVWTtbps2+bfNSWSMkTqqQf0HdkCSeXlNBsuZevhARESUMVVdD+A8AJttZ9mGUo/rO3AwF9VialiqNWyMyZ4ADNvqq6CdO17yxS8uAfCxiVpi8M2sKVNmzDgQwBgTtUT1voaGhpSJWn20m6E6JhtJ65bfdlsbADP3MYuMMlKHiIjIEFV9HsCvbefYhnE+rDERgm/6sI6n2BiTFSL669aCklrbOforKOeOdfZsV4GHDJUbN7WyMmaolhFOJGJuGjX82wZ/VEXFUADDTNQS4C0TdQLmdUN12BgTEVEQXQ+g3XaIT/GjMQYUP8OFEuodXWyMyX8qf2staL7CdoyBah4Re0NSzpG2zx1HXNfcdmqRQG2nVnPTshN577230FCtnRo8aFCRsWKOY31ngmkiYuqbBXOfZyIiIkNUtQPAzbZzfIpfzeowOPitT2t5go0x+e29/EF55wZ12FZftRSP/8T2uWP54INGAK1GagXonPHkWbM+B5FJJmqpyAONjY3+/beWn7+rqVKqusFUraAw9WcSwNjnmYiIyLB5AHy5CaOP/Nxl9RVcJBU+rmcUG2PyU7c4TuCHbfWV7XPHvQ3fw4bKHVFeVeXlOP8+c1Kp0wCIiVpqcEhZX6Rcd5CxYiJZ1xiL6icm6igw2EQdIiIi01T1HQDLbOfYyoiU+tjzCW7ApRL1bT2D2BiTb1T00paR45+1ncO0rc4dr/B9cRFTjZ+TdN2TDNXKjOrJhiqt6+jq8vUeYBVzExldkY2magWFmmr2VdkYExFRkP3FdoCtbXbh58To3ZHCf/m4njFsjMkXIvhNoqC0xnYOr/SeOz4Caux+4T7ZdcSIJwCsM1ErCNupyysqdgVwjKFyD7/a0ODrtQkmG+M8wM9J2v5QNbOt3eDnmYiIyAOLbAfYWtJFxOclL0S1TPZ5zYyxMSbPCbC0taAztMO2+qr33PGZ8PHc8aM33rgJ5rZTHz+putrIROWBSg0bdiKAIYbK3WOoDhEREVF/PI8AnTN2/dxKneYAuA2XS6h2eLExJq+9l5eff4bi0B7bQfyw5dxx79tXf84dm5tOPWxoV9exhmoNiJibRr0h2dUVqG1MRERElBt6h02utZ1jCzU0u6WfxmMTvm9h3QFjY0xe6hJHzsiWYVv90Rrt/AuAJj/WiuTlPQbAyFAjETF2f3B/VVRURFTE1DnnPy1vaOgyVIuIiIiov962HWALC2+Mt7ga1VJiae1+Y2NMnlHRy1pGljxnO4cNRe3D/hfAkX6s1VhT063An03UUpFTZc4cK18X1g4bdjSAYhO1/J5GTURERPQp7bYDBMBgALdAxMYb635jY0zeUNyQzcO2dqS4o2kGgEv9XNMxNJ1aVEcfvXr14SZq9ZdrbvhX1zDgUUO1iIiIiAYi665dHKCpqMYM2yH6go0xGSfQZYlC/aHtHDbs1rHiYCjm+r3uxsGDHwHQaaKW47pWtlOLqpF1BXjs8fr6rLvqiIiIiEKF34tsofg1vi6jbMfYGTbGZNr7kfzkGYpSX6/JCYLRza+OdhUPARjq99rPzp3bCREjw6bUwrVNUysrYwD2M1LM3N3ORERERAPlyw0lIVGEPPzKdoidYWNMJnXDdc9cs+vEZttB/CZ4Lj+VH/kjIHtZC2HoXK0AE6ZWVe1rolZfuSKmmvFNg9Jvz4mIiIgoKASVuEiOsx1jR9gYkzGqellr0f7/sJ3DhqL2Yb8BMNVmhsFDhjwMYJOJWqp6sok6fSXm3lL/9a9z564zVIuIiIiITBH8Dt8V33dW9lWe7QCUJVRuTBTGbrcdw4beYVuX2c7x17lz15XF408CyPjKI02f9/1N5ql27ujKyt0iIl8yUUtF7jNRh4iywrlTKysPsB3CC6n8/O8vnTfPyDV9REQ+GoeN+DGAn9gOsi1sjCljAl3WWqg/sJ3DhvSwLfF92Nb2KHCvGGiMBSg7Lh4veqKuLmEi1444IicDiBgolczbvPlhA3WIKDscrSJH2w7hBUf1JzB0fz0Rkc+uwMVyN27Rl2wH+TRupaZMfYyUnJ27w7bkQVgYtrU9g4EHASQNlIpsBr5ioM5OGdxG/bfGO+9sNVSLiIiIiMzLg2Iu5kjg+tDABaJQ6Yarp7cUxz62HcRvgoV56WFb+LztLFvrfcO70EQtBTy/tumoioqhAIwMYlBOoyYiIiIKgy/hI1xoO8SnsTGmAVPFN1qLSv9uO4cNRe27WR+2tV3mplOfdNLllw82UWt7IkOGHAdgFwOl3DyRhwzUISIiIiLv/TcukT1th9gaG2MaIPm/RGFsnu0UNhS3r5gOyDds59iezcnk/QBSBkrtunH9ek+bfzF1TZPq4saamjVGahERERGR10ZA8WvbIbbGxpgGYnki6n7fdggbdutYcTAQnGFb2/L0nXeuBbDMRC3X3Pnfz5A5cxwAZq6F4jZqIiIionBRVOBi8fzoXl+xMab++lhSTk4O2xrxycoiVbkXwDDbWXbG1HlbR/V0ERETtT7t6NWrDwewu4FSKpHIgwbqEBEREZGfFDfhMtnVdgyAjTH1T++wrfEf2Q7iN8HCvEFJvUeBL9jO0hep9DljzbSOAnuWVVYeZCDSZziplKm30U8tuv329w3VIiIiIiL/7I0krrEdAmBjTP2Q08O22nb/HwDTbOfoq+V1dR8K8IyhcqcZqvPvDJ0vVoDbqImIiIjC69uolkNsh2BjTH3125wetiV6ue0c/WZoO7WK+bMfU2bNGgtgfyPF8vIeMFKHiIiIyBxPb/bIMhEAc1EhEZsh2BhTXyxPRPW7tkPYsFvHioOCPmxrexyRe2BgOzVUDymvqhqTcZ2tSCpl5C20AM8umTfvbRO1iIiIiAwKxLnZEJmEKL5pMwAbY9qZXB+2dR9CMGxrWxpralZD5AUTtdxU6qsm6vyroGvqfDG3URMREVEQDbcdIIR+gQvF2jwfNsa0Iz0unLNzd9iWe3dYhm1tV3oIV+ZlDG6nPuqCCwohMtlErZTr3m+iDhEREZFhe9sOsIWY2EHoj2Fw8Ftbi7Mxpu1SxaVt0fFG7sMNm6K20b8CpNx2jkyJ49xtqFT5EdOnjzBRKK+n5yQAeQZKvbx0/vxVBuoQERERGSMieQjQyxWR0DTGAPAVXCRn2liYjTFtz82JwthttkPYMKp9xfkQfMt2DhMW1dS8ocCrBkoNynecEw3UgRiaRm3qbTgRERGRYeMB5NsOsYUjcG1n6BfBTaiSAr+XZWNM2/JUIqrfsR3Cht06VhykkFtt5zDJMXQO10RDO6GiYpCqGmmwXcdhY0xERERBdIztAFuLhK0xBnbHYPzC70VNbGek7LJGUs5ZivE5OWxrcIiHbW2Po3pPSmS2gVInlZeX5zU2NiYHWqBo2LBpqmpiS/aqpbW1rxmoQ0TZ60EFnrIdwgtd+fkbbWcgoh063naAreU7GPD3btYoLsZFsgC36nK/lmRjTFvrcaFnt+XksC1EipJ6Z+iHbW1DY339q1Pi8ZUClGRYqjA5ZsxkAAsHXEHVzDVN6auoiIh25IkldXU32Q5BRLlFRIoRrMY4OchBj+0QA+BAMBfVcgjmqi/5uZWa/klULmuLli61ncOG4ramXwE4wXYOrwhwn5E6qVRG26kVMHPtE88XExERUTBVARhiO8RWWm0HyMAEAN/zazE2xrTFLS2FJb+3HcKGUe0rz1PBt23n8JTrmmokB/zGt2zGjEMA7GMgwzuL6uqM3M9MREREZIqIDAHwDds5PuVj2wEy9FNUyxf9WIiNMQHAU9FofnY3htsR7XjtQIVm/QOBxfPnPw/grYwLiYydPHPm/gP6UMcxNY3a1BVURERERCZ9BwG6v7jXm7YDZGgogN9DRLxeiI0xrYEbOfsNjNtkO4jfRq5fUehk4bCtHbjfRBEHGFCDqwP8uM8Q4TZqIiIiChQRGQfgR7ZzbMMbtgMYUI5qnO/1ImyMc1uPA61oLdrvQ9tB/CZAJD+FOwUy1nYWv5i63khU+93gHhWP7wngIAPLf7Ckvv4fBuoQERERGSEigwH8EcBw21m2IRsaY0Dxv/i6jPJyCTbGOUwg32iOli6xncOG4o6mXwJi5D7dsFhWW/sMgPcyraPA4eVVVbv352PyVU8HkPkWGJF7VFUzrkNERERkgIgMQropPsR2lu14znYAQ4qQj+u9XICNcY5SyNyWaMmttnPYMKp95Xmq+I7tHH5TVRXVBwyUclKue3K/1hYxso1aOY2aiIiIAkJECpA+qmbkOkoPdAJosh3CoJm4WI71qjgb49z0dGE071u2Q9iQK8O2tsvUdup+NLqTZ80aDmCqgWXXLB071rdL3gdCUim+zSYiIsoBInIU0m9jT7KdZQdeUNWk7RAGCRS/Q5V4ch0WG+PcswZu5CwO28pNozs7lwFYk2kdVT1uUnV1nz6P0tPzZQCDM10TwP06e7ZroI53HMfYPz5JIGKqVmCI5BmqtNlQHSIioj4TEUdEpojIIwCWAQj6rJrFtgN4YF8M9mbImalvUigcehxoRXOODtsqTjkLFBr0L2CeamhoSJXNnPkAVC/OsNTQYd3dxwN4cGe/UQxtLxLVe0zU8ZIjstnUEWhHdRcjhYLFzFASkZx7sEdERACAoSIS9XG9AgDFACYCOBTAKQD28nH9TD1mO4AnFFfiYvkjbtEVJsuyMc4hAv1mrg7bKuxYcb1Cvmw7RxCo6r0CZNoYQ9LXL+2wMa6oqIhg6FATn/dW5/33A//UM5VMbnYcQxtxVHc1UyhQzPyZVNkYExHlpu/1/qCdWw/gKdshPDIIwC0QmQqDQ1m5lTpXKOpaoqVzbcewYVT7yq+JCr+I9sp7772FABKZ1lHgZJkzZ4dfQz7eZZcpAIoyXkvkwcbGxsCfkclX3WiwXBCvfMiUqT+Tyc8zERFRNvqzqvbYDuEZxRRchFkmS7Ixzg1PRwvzq22HsKGwfdXEnB62tQ2NjY1J6cMW6D7YrezNN4/Y0W+QVCq3plHn57carFZgsFZQmPkziZj8PBMREWWjBbYD+OCD5FQIAAAgAElEQVRXmCWfM1WMjXG2E6xV7Tk7Z4dtwb0PQDae1cyMqUbTcXbc+Ir061qn7ejo6Op60kAdzzXW1HQD2GCkmMgXjdQJlvEmiojrNpuoQ0RElKXaATxuO4QPRiKCX5kqxsY4u/U4QEWicOIHtoP4TQBnUMpZACAbm4uMJbq7nwDQkWkdTZ8z3qbJM2fuD2DfTNcA8PCrDQ1hmkLcYqSKasxInYA46oILCgGMMlFL+caYiIhoR+5Q1TB97zRwgq/hIiMvYtgYZzOBXt5cEAv8wCIvFLavvF6hHLa1Hb2N5iMGSsWmxOP7besXHFUz06hFAj+NemsKrDZUysjb1aDISyZNNvrvGKxFRESUTRTAb22H8JXgJlwmGQ/4ZGOcvepboqW32A5hQ3HHyjMEymFbO+O6RrZTO6qnbOvnJX2lQaY29HR2/tVAHf+IvG2o0t7HV1ePNFQrCCaaKiSqpj7HRERE2eZhVV1lO4TP9kESP820CBvj7PRMNJp/ke0QNhS2r5oI1XoAYjtL0CU3bXocBs7DqshntlOXV1XtrsDhmdYG8KflDQ1dBur4x3VNvc10uru7jzFUKwhOMFUomUq9ZaoWERFRlrnedgBLvoNL5OBMCrAxzjbpYVtncdgW7czyhoYuBR41UOro8vPOK976J1Kp1Ckw8/UlVNuoAcBxnFdM1RIRY82kTZOqq/OhWm6o3Lrld975nqFaRERE2eQRVV1uO4QleXAxFxUSGWgBNsbZpUcg5+TusC25Axy21S+OiInt1JHkoEEnbf0T4jgmtlF3DlX9s4E6vnKSyeeNFdPsOCe/a3f3ZABmtoWrvqCqaqQWERFR9nABXG07hGWHoRCXDvSD2Rhnl2+3FJQssh3ChsL2pusU+IrtHGHjdHY+CiDjrcriuv/cTj2punqYqh6XcU3g8cfr6zdmWsdvjXfc8QFMTaYGxkyZOfNQQ7WscUUqjBVznBeN1SIiIsoet6kq/41U/AIXyl4D+VA2xtljfms0drPtEDakh23h+7ZzhFFjQ8MGAR7LuJDIieVVVUMAYFhn5wkAhmZcM4TbqLfylKlCjuqAn3wGQXlVVQFUZxgsudRgLSIiomzQCuDHtkMExHA4GNAAYjbG2eGFoRuHV9sOYQOHbRlgZjv1rj2uWw4Y20a9aVMqZeI6KTtUG42VAr52XDxeZKqe35Ku+3WYO/fvRjZvzsldMURERDvwbVVttR0iQL6Kajm9vx/Exjjs0sO2Tn1/r73CNbnXgIJ1r0Q5bCtzgwYPfgRAxsPaHJFTZc4cxxX5qoFYTzx9xx3rDdSxQ+RvBqsN7QEuNFjPN5Oqq/NF9TJjBUVebLzzTv7DT0RE9C/3qOoC2yEC6GZUS7/mm7AxDrecHraV7+YtAIdtZeyvc+euA/BExoVUT5389ttHiepoA7XCvI0aS+rrXwFgbHKyAldNnjXrc6bq+WWXrq7LITLWVD1RfdhULSIioizwPoCc3DXaB3tA8bP+fAAb43D7Tq4O2ypqb/pPDtsyR81sp/6cALMN1OlJDhr0kIE61qiqiuoDBksOd5LJ6wzW81x5VdXuKvJTkzUVuM9kPSIiohDrAnCmqrbZDhJYgstwsRzZ19/Oxji85rdGY7+1HcKG4o6m/wDwQ9s5sslg1YcA9BgolfE0ahVZuPy220L/Rd6DJm56WWXlVMM1PZNKpX4FYITBkq8vrqt72WA9IiKisFIAs1T1H7aDBJwDxVxUS37ffjOFUc4O2ypOvBqDohYctmXUE3V1CRVZaDtHr1Bvo95iyRe/uATAaoMlRR3nj0fF43sarOmJKTNnXgSR803W1PSQPSIiIgKuUtW7bIcIiQMAfKcvv5GNcdioNKumTsvVYVtwIg/B7Fso6uWomthOnamU67omtyBbo7NnuwBuN1lTVEfnA/ecdPnlg03WNWlKZeWXRPVGw2WTmp9fY7gmERFRGF2rqqE6XhUA16BadjqXiI1xuCTFwTmJwgnv2w7iNwGciJt3B4BxtrNkq009PQ8ASFkNobpkWX19s9UMBiXTjXHSZE0Fjtiwbt1tFRUVEZN1TZhaVbWvkz6vbrRxV+ChpfPmfWSyJhERUQj9l6qamOeSa4ZCsNMjqGyMw0T0uy0FJQttx7ChqH3FLwQ4yXaObPb0nXeuBbDUZgbJkm3UWyyvq/sQwB88KD19zdCh95VXVQ3xoPaAlE2fXqquu1AB41u9ReTXpmsSERGFSArA5ap6le0goaU4ERfL13b0W9gYh8cdrQWl/2c7hA3pYVtyhe0cOcLmdmq3RyQrtlFvzRW5DukhGaadmnLdB46YPt360YIp8fhkRCJLARi/UkqBxsW1tctM1yUiIgqJDQDOUtWc7AOMUtyIaine3i+zMQ4BBV4c3N2Zo8O2Xi/hsC3/JNOTlL1o4vri6d43rFllaW3tawJ41fCfOCgSeXFKPD7Zo/o7VF5enlcWj18rQCOAqBdrOKo/96IuERFRCKwEcKSavQIylxUD+K/t/SIb4+BLpBznjA/3OLTTdhC/pYdtpR4Gh235prcxfdrG2mr3bbWnXOBKAJs9Kv8FARaWxeO/OLGycheP1viMqVVVB6Q+//nlAK4GkOfRMn9aVF//N49qExERBZUCmAdgkqq+ajtMlpmFC+WYbf0CG+NgS4rIWR0jx79jO4jfOGzLHrE0ndpRvd/Gun5YUlf3OoCbPFwiAuCqLpHVU+Pxa8qrqgq8Wqi8snJCWTxer677AkQO82odAElXeISCiIhyzmoAX1bVC1R1o+0wWUjg4Heoks/MafHqKT+ZIPq9loLYQtsxbChqX/FzQDhsywInErk35bq/hI/b1wV4dlF9fVY/ABo8ZMi1m7q7KwDs5eEyxQrMTrnu5VPj8btU5L7dOzsXNjQ0ZDRt/Lh4vGgTcJoAFRA5Af78t/GbpbW1r/mwDhERURB0AfhfAL9gQ+y5/ZCPHwK4duufDEVjrJCXoPihOFoPxWjbefwhC1oLYqbvAg2F4o6m0wG50naOXNVYU7O6LB5/HsChPi6btduot/jr3LnrJsfjFznAoz4sF1XgUqheumbo0NayePwxBV4QkZcimze/1Hjnna3b+0CZM8eZ9uabY1OOc5CqHigiRwCYJv7+e/F6squL11FQpo6bEo/7drwgcFQ/WlJfP992DCLaKRfAnQB+rKrv2Q6TMwRX4UK5G7/Xpi0/FfjGWIDWPCdyxpqR+75d1PbyJJH8BwEcYjuXlxR4cUj3xots57ChOPF6CRzUgcO27BK5F6r+NcaOk/WNMQAsrav785SZM+eJ6iwfly0GMF2A6VBFKj8fZfF4J4D1ANYB2AARgesWQKRgCjAi5Th5ACBi5f+GKQVmLW9o6LKxOGWV0wQ4zXYIa0SeAsDGmCi4NgP4I4D/VNWVtsPkoMFwcAtEpkFVgeCfMe6ByFlrRu77NgAkCid+4CR1Kryb8BoEOTtsK9rxYgGHbQWDiPh5n/BLi2pq3vBxPavyRL4B4AXLMYYB2B3AeACHQvUQiIwFUAjbD0xFrl5SV2f1Pm0iIiIPrQJwBYC9VbWSTbFVZbgQVVv+R6AbY1Vc2lJQsmjrn2seVbohEY2dIapzbOXyUFLEOTtXh205OpjDtgKit1F9xZfFVO/zZZ2AaKyp6RbHOQfpN7b07/60pK7uOtshiIiIDHsXwI0Apqhqiar+t6qutR2KAAh+iUtkNyDAjbECv0wUxm7bzq9pS2HpNQJ8DemD6llBBT9oKRjfaDuHDUXtTdcK8FXbOehffLs+yXX9fDsdCItqat5wgNMBbLKdJSgUeDXiONO1dzsTERFRiG0A8BiAHwE4RFXHqOq3VJU7ooKnEIpfAwFtjAXyWFs09qOd/b6WaOwPqjgGwBofYnlMFiQKYv9rO4UNxR0rTgNwle0c9O/Un+3UqxbfcccKH9YJnIV1dY0qUoX0XYU5TYAPnUjkpMaamg7bWYiIiPpBAXwIoBHpN8IXAJgEIKqqX1HV61TV9vEp2hnF+aiWE4I4fKsphUHnKtCn60UShbGnixOvT4KTehD+TtE1RiEv5eqwrVGtq8YjIvXgsK3AWVpb+1pZPL4K6XOonvD5LHPgLKmtvats5swCqP4WOfr/AQE+TLnusUvr6t63nYWIiALvBQD/8HnNdUhPjt4AoA1AAkALgA8AvKuq3P3VN28BeN52iB0oD1pj3OZE9NTWEWPX9eeDWov2+3D3tS9PTebn10NwhlfhPNKW70RyctjWqNZVwzXi3g8O2wosEblHVX/sVf1kjjfGALC4tvZ3U2fOXK+qdQAitvP47D3HdY9dNH/+m7aDEBFRKPxJVa+2HYIGQPFX3KqX2I6xI0HaSt0j4pzVPKJ0QN8grRk9cWOiMHYWgCsRnq2JKVU5b8vU7VwigKMR904AMdtZaAdUvTxn/NaympoXPawfGotqaxcocDaAjbaz+OiFSCp1dCObYiIiIgqAwDTGAr0808FTCmhrNHa9qp4LIPBvYFXxg0RhyeO2c9hQ1NY0B8DJtnPQji2qq3sBql49uMmpadQ7s6Su7n4BpiC9NSvbPThUdUrjHXfkwp+ViIiIQiAYjbHKjS3R0ltMlUsUljY4opMBBPjMmt6ZKIz9xnYKG4o7VpwGgWfbc8kwEa/eGuf8NupPW1RX90Kkp+dgEXnYdhaPJAWYs2Ts2DMer6/PpbfjREREFHD2G2PBXxOFa75numxzQekLknKOgIjfB/R3SiEvDe7uutB2DhtGta4aD5U65OigoTBSb7ZTv7+kvj5w/98MgsY772xdXFd3GoDLkV1bq5tc1SMX1dVdo7Nnu7bDEBEREW3NbmMseD0pyXMU05JelG8pHv/R8I4hZQDu8KL+AOX6sK37AIy0nYX6bun8+X8H8J7RoiL38r7a7VNVXVxX939JYLyGf8t5jwDX7zpy5MFL6+uftR2GiIiIaFtsNsbr1dUzOkYe0O7lIu+MGdOdiMYqkR7KZfstRUpVz8/xYVultrNQ/2i6g73fZE0nlQp7s+eL5XV1Hy6pqztTgVMAvGw7Tz+5CtwZcd3SRXV1Vz564428zoKIiIgCy1ZjnHKAryUKS1/zY7GthnKdA4tDuUTlikRh6WO21repuK3pGnDYVmhFXNfkduqPF40bt8xgvay3pK7ukSVjxx4M1a8hfYdjkCUB/FEc56AldXXnc+o0ERERhYGde4xFv9tcUPqo38smCkvviXa89kZEnQcB7OPn2grc1VpY8j9+rhkUozpWnKoiHLYVYovGjVs25e231wDYPdNaAtzPM6b91/s5+wOAP5RVVk4F8E2InAxgsN1kaSqyVly3TvLyblp0++0BHnxIRERE9Fn+vzFWqWktKL3R93V7tRfs/5KkcCSAZ/xaU4CX8zf35OywLVWph+3z7JSR3qbMyHZqFeE26gwtrq9ftLi+/ixNJvdQkWoAfwOw2UKUVlGth+qX9+js3HNxff0VbIqJiIgojHx9YyzA0tZC92I/19yWluLYx/vizant7T23Aqj0eLk2x0mdsWb0xGyaLtsnHLaVdWpFpDiTAuq6myPvvbfIVKBct2TBgnYAtwK4tbyiYtfU0KHHiuoxEDlcgYMADDG8ZAuAfwB4GsDjS8aOfZZv//tPgTdF5O6MC7nuiwbiBI6oviiOk/nnh163HYCIKEz8bIxX5+Xnn6EYZ+Otxme8gXGbEEW8qKPpeVH8Gt680XRV9fy1Iye85UHtQBNAivJSNVDhsK0ssbiu7u8AKmznoG1rbGjYAODB3h+YVF2dP7SzsxQi+4nIvgJ8UYHdAIyC6iiI7AogH8AgAD0AVIBOF/gEIi1QbRHgQwBvqOO8kQesbKypWW3pj5dVFtfXPw7gcds5gmpxfX0tgFrLMYiIKMf41Rh/4kJO/XjXcS0+rddniYLYDbu1N73hAncBGGGytqhe0Zqzw7ZWzFaRM23nIMpVz86d2wPgpd4fRERERLQDfpz7dAVyflu05BUf1hqQ5mjsURcyGcBqY0UV97UWlubysK2rbecgIiIiIiLqC88bYwGubImWPOz1Oplqi5a8sjkvchiAjM8/CvByXk9PpQJqIFqocNgWERERERGFjdfNy/yWaOyXHq9hzPrh+7VGo/knQrU2gzLtHLbFYVtERERERBQeXjbGT0Wj+aG7ougNjNvUWlhapYJvA0j188NdF7k7bEvzUjUAOGyLiIiIiIhCxavG+CNJOWe9gXGbPKrvuURB7AZVPRnAun582I/aoqV/9ipTkBW3rZgN5bAtIiIiIiIKHy8a4y5xnNNaisd/5EFtXyUKSx+TlBwO6cNdgIr7EiHaNm7SqPaVp3DYFhERUWjxPvLwyrl5NkReMd0YqyqqWkaOf9ZwXWtaikte3xyRowBt3MFveyV3h22t3E+h88FhW0RERGHVYztAr4jtAP0QlKybbQcgyhZGmxkVzE4Uxv5osmYQrB9ekkhEm08A8Ntt/HK7E9EcHralHLZFREQUbkFpjAfbDtAPw2wH6MXGmMgQc42x6L1tBbGfG6sXMIppydZo7BsCqQaQ7P1p14We3zyi9E2b2WxID9vS2wHsbzsLERERZSQozdUQ2wH6IShZg/J3RxR6eYbqvDC4q6tSC7J/K3FLtOTWoraVq0X0jwCuy9VhW4UdK6+G6lm2c2QNwfFF7StOsB2DiIiyR8pJXdkx8oD2PvzWoDRXI0RksKqGYXjrKNsBegXl744o9Ew0xh/BjZzy4R6HdhqoFQqJwpK/FLW9OrGtcMIHtrPYMKp95ckCnW07RzYR6IGAHGE7BxERZY9ISn8GoC+N8Xqvs/SRANgDwGrLOfri87YD9OqwHYAoW2S6lbobrp7RWrTfh0bShEiicML7HLZFREREYaeqGwEE5S3tPrYD9FFQcrbZDkCULTJpblSgF7QWlT5jLA0F2m4tK3btHbZVYDsLERERGRWUBmui7QA7IyJ7IjhbqRO2AxBli0wa4/9siZYuMJaEAk0AcfOdGnDYFhERUTYKSmN8sO0AfRCkjEH5eyMKvYE2xg8korGfGk1CgVbY0fQTDtsiIiLKWmttB+hVbjtAHxxjO8BW1tgOQJQtBtIYr1DNjyvgGk9DgVTUtvIEUXDYFhERUfZ613aAXmNEZLztEDvxZdsBeq1XVb4xJjKkX42xAK15Tt4picJxQZleSB7bbX3Tvr1XU0VsZyEiIiLPBKUxBoBzbQfYHhE5EEDMdo5e79gOQJRN+tMYb07BOX3NyH3f9iwNBcqo1lXD3RTuB4dtERERZbsgNcYzRSSot19cbDvAVoL0d0YUev35opMf0dTxkr5jjrKcAII8nQcO2yIiIsoFb9oOsJUxAAI310RE9gBQaTvHVoL0d0YUev1pjEVFZhe3N931+Q8+GOpZIgqEoo6mH6vq2bZzEBERkS9eBaC2Q2xltogE7RjXVQCG2Q6xlZdtByDKJv3epqLAOV27fLKsqO3Vz3sRiOwralt5AhTX2M5BRERE/lDVDgDv286xlVIA37EdYgsR+RKAS2zn+JSXbAcgyiYDPb9xsEjk6eLEa4cZTUPWcdgWERFRzgraG8g5ImJ90JWI7AqgBsH63igJoMl2CKJskslgg8/BcRaPal9xvrE0ZNVuLSt2dVO4Dxy2RURElIuesx3gU4YBeFBEorYC9A4Bm4/gTKLe4lVV3WQ7BFE2yXTi3xCFzC9ub7pOMq9FFgkgmifzAEywnYWIiIisWGo7wDbsC+BPNprj3jPOvwdwut9r98Fi2wGIso2JZlYAXFHUsfKPe378XJAGElA/FLWv+JECFbZz5C7Jt50g/OQhhfC8VWbWAXoTANd2kDATwTwAH9nOEWqKZwX4s+0YOehppLfoBs2RABaKyBf8WlBERgC4B8DX/VqznxbZDkCUbcy95VU9q3vILssL21fsbawm+aKorel4QK61nSO3aY/tBOGnr7RF10xSwbcBbLCdJowE6GmNln5THByG4G2pDA3XlT+7GFwKlRsBpGznCSMVrG2Jxk4SyKkAPrSdJ1eo6gYAL9jOsR0TATwvIud6vZCIHIH018AgvikG0tPDl9gOQZRtjG5/FuiBDuTp4sSKw03WJe9EO1aOEcFdCNZACaIBUUxLJgpiNyQdZ6JAHrOdJ6xaRsaeT0TXHtH7kGGj7Txh1BYdu661sORbqlKG9DU4NAAt0ZKHU7JpQu9DBu5k8MdfbAfYgQIAd4nIkyJyqOniIjJGROoALAcwznR9g55X1RbbIYiyjRfngveAI4uLO5qCdAE6bcNuLSt2jag+DKDIdhYikzpGjn+nJVryFVWtgEqz7TxhtOUhQ56TNxHB/kY50BKFJcsT0c5D+JBh4NoLDupoLSz5lgudCmCF7Tw54CHbAfrgGADPishCEZkuIgMeGioiQ0XkFBG5B8CbACqRPiYYZA/aDkCUjbwamDUYiloO5QouDtuiXJAoLL075XSP59umgVszct+3W6OxE1W1AgDfUAyA4tCeREHshoiTOhCCv9rOE1Zt0dKliWjnQQCuBMBpvN55FsDHtkP00VSkJ0avFZFFIvJLETlXRI4UkT22HtglIiNFZLSIHCYiZ4rItSLyGNJf1x4CcCbCs3uOjTGRB7xsWgXAFYXtTQ8Vtb05wsN1aACK2ldeyWFblAu2vG1yoNPAOx8HLFFYenfSSY5X6K1In2+jflo7csJbrQWxE/iQYeAUh/a0RmPXOxGdAMWTtvNkI1V1EY63xlsbBKAMwPcB3IX0VuiPALSJiIqIAugAsAbA35EeqnU1gBMB7GIl8cC9papBu2+aKCt4/jZXgK860rMk2rFyjNdrUd+kh23pz2znIPJTc7R0SSLaeSD4tmnAOkYe0J6IllY7gmmArrSdJ6z4kCFzzSNK30wUxo6HIC5Aq+08WegO2wFou+psByDKVr5sc1ZgYp7qP0Z1rJzqx3q0fdGOlWMcwZ0Iz3YhImP+9bYJB0Dlb7bzhFVzQWzx8HXDDhbVOeBDhgHZ8pBBRMoBrLKdJ4wU0NaCWL3Tk5qA9HZaMkRVlwLgw6/gccHGmMgzvp3/VaBYVR8v7lg506816d/tvvblXSKqDylQbDsLkU3NI2JvJApLjoMgDiBhO08YvTNmTHdLYek1LjAJwFO284RVS0HJoqEbh295yLDZdp4wWrvbhLWt0ViliHMMBK/bzpNF+NY4eP6iqu/ZDkGUrfwejDUYqjXFbStvEL6x9JUAkhqUPw/AAbazEAXBlrdNkZ7U/uDbpgFri8ZeTURjR/c+ZGiznSeM3t9rr670QwaZBOBp23nCqqVgfOPQDcMP4kMGY+aBO0KC5mbbAYiymZ2J0aKXF7evfKSw/e2RVtbPQUXtK69Q4BzbOYiCZsvbJgf4KoDVtvOE0T+3tCaVDxky0BYteSURjR0lkGoA623nCaN/PWRwDgPwjO08Yaaqa8D/PwdJE4A/2Q5BlM2sXaWk0C872LS0YN2qL9jKkCuKE03HAfpz2zmIgqw5Gnt0cHfn/gCuB5C0nSeMmkeVrmmNxioFcgoAbvcbAAW0JVpyq6RQgvS9qjQAbdHxL2/1kOET23lC7FfgVXdBcX3vxHAi8ojtO4Yn5LnuP0Z1rCq3nCNrRTtWjhEHd4Fb14l26sM9Du1sjcauTIk7CYK/284TVi3RkkcGd3fGkH7IkLKdJ4xaimMftxaUnC2QUwG8bztPGCngph8yOCUQvdd2njBS1VUA7redg/AO0tdQEZGHbDfGAFCk6v6luL3pMttBss3nP/hgaET1Xg7bIuqf9oL9X0oUxI7k26aB2/KQwRE9DIpnbecJq5ZoycN5m3v4kCEDLcXjP2otKD2LDxkG7ArwzLZtP1JV/h0QeSzPdoBeeQBuKmpfMbEt2nyZYhq3MWZIACne5ZMaAIfYzkJ9EZkvjvsN2ylCrUc+NllOARfRklujHU2PO4rfSvoMsteaxJEZPqyzTUlNGf/a21xQ+oJg4ZFF7aO/B+CnAIaZXuOzdIY4TpP362xbEj1vm6y3ZvTEjQCuLGpb+aCIzoUPQxRF5G4Irvd6ne1xxF1numZLtOThwva3FzvYdB2AixCMlwOBp6pvicitAPhvlB1/B9BgOwRRLghKYwwAEMhFRe2jx0TlxXPaCw7qsJ0nzIram37IYVvhoequbR1Z8pztHPRZ7QWxdwGcPKp95SkK92ZA9vJsMcXGliz870AxLYkori9Yt6ohz039DpATvVxPHKcpGz+PicKSpwQLDynsGH2ZKH4BYBev1lLV5taCWNZ9DtuiY9cBuKSobeX83ocME2xnColrAZwHoNB2kBzjAviOqqrtIES5IIhPS0+IuIP/Xpx4vcR2kLBKD9vCL2znIMomLdGSh10MmQCVG8FhNAPSMXL8O63R0i+ragVUmm3nCSPFtGSiIHZDnpM3EcBfbOcJq0RhyfJEtPMQFXwbwEbbeYJOVVsAfNd2jhx0s6outx2CKFcEsTEGBPvCSS0rXrfiWNtRwiba0bQPh20ReaMtOnZda2HJt1w4ZQBes50nrBKFpXennO7xfMgwcGtG7vt2azR2oqpWAGixnSeMFIf2JApiN0Sc1IEQ/NV2nqBT1ToAj9nOkUPeBXCV7RBEuSSYjXFaIVx5rLhjxTdtBwmL9LAt3MdhW0TeaouOX5aIdh4M4EoA3bbzhFF7wUEdrYUl33Kg05C+n5MGIFFYenfSSY5X6K0AuN1yANaOnPBWa0HsBD5k6JNqAO22Q+QAF8AsVeXwRyIfBbkxBoA8qNxY1L5iruC5fNthgq5zl09uB4dtEflCcWhPazR2fcRJTYDgCdt5wqo5WrokEe08EOmHDJts5wmjjpEHtCeipdWOYBqgK23nCSs+ZNg5VX0PQCX4+fHatar6pO0QRLkm6I0xgN6hXB3DHi1Y90rUdpagGtXe9AMBzrWdgyjXrB054a1EQewECOICtNrOE0ZbHmOxne0AABEVSURBVDI4ERwAlb/ZzhNWzQWxxcPXDTtYVOeADxkGZMtDBhEpB7DKdp4gUtVHAPzSdo4s9iSAn9sOQZSLQtEYAwAUx+W5eX8vTrwasx0laIrXrThWgf+0nYMoVymgrQWx+s0R5dumDDSPiL2RKCw5DoI4gITtPGH0zpgx3S2FpddISiYC2mg7T1i1FJQsGrpx+JaHDLw/9rN+DJ439sLrAM5RVd5ZTmRBeBrjtHFwIs+Mal95su0gQRHtaNpHXPkDAnb1FlEuWjeitK33bdMx4NumAdnykCHSk9ofwHzbecKqpbjk9US09NjehwxttvOE0ft77dXVUlh6jQuZBOAp23mCRFWTAM4E8LTtLFmkBcBXVZUPBYksCVtjDADDFfpAcXvTFbaD2NY7bOteDtsiCpaWgpKFfNuUmbW7TVjbGo1VOsBXAay2nSeMtjxkcJLKhwwZaIuWvJKIxo4WSDWA9bbzBIWqdgI4HcBbtrNkgfUAvqyqb9oOQpTLwtgYA+mriK4b1dH0e8GKQbbD2NI17JPfATjUdg4i+qx/vW1yDgPfqgxYczT26ODuzv17HzL02M4TRs2jSte0RmOVApyM9BUw1E8KaEu05FZJoQR8yPBPqroWwBTw+rpMtAM4UVWftx2EKNeFtTEGAKjiguJ2eXL3DS/vZjuL30a1rfh+7xY5Igqwtuj4l/m2KTMf7nFoZ0th6TUpcQ+D4O+284RVSzT2p8HdnaUArgfAM4wD0FIc+zj9kEFOAfCe7TxBoKofAzgWwCu2s4RQM4ByVeXDU6IACHVjDAAKTO7pyXuqqG3F/raz+KV43YpjVeS/bOcgor5RwP3n2yaRe2znCav2gv1fShTEjux9yMD7PQfgwz0O7WyNxq50RCdB5B+284RVS7TkkcHdnTHwIQOAf745Lgew0HKUMGkCcLSqvmQ7CBGlhb4xBgCBjBWRp0Z1rDjVdhavRTua9oErd4HDtohCp6U49nFrQcnZAjkVwPu284TRvx4yOCUQvdd2nrBqLih9MVGw5igVfBvABtt5wmirhwyHQfGs7Ty29Q6NOh7ATbazhMDjAI7imWKiYMmKxrjXcFW5L5uHcm0ZtgVglO0sRDRwLdGSh1XzJ0DlRvBt04C0FI//qLWg9Kz0Qwb9wHaeMFJMSyYKYjckHWeiQHj1zgA1F5S+kChceyQfMqSnVavqNwFcDKDTdp4ASgL4GdLTpztshyGif5dNjTHQO5SruH3Fgi+sXj3EdhjTuoatvxkctkWUFRKF49a3FpZ8SxwcDoBDVwaoJVrysIshWx4yuLbzhFHHyPHvtERLvtK7k+FD23nCaOuHDIA+bjuPbao6F+nvV/i17V9WAzhGVX/Ke4qJginbGuNect4nI7ueHN386mjbSUwZ1bbyexCZaTsHEZnVOnLtywDus50jzNqiY9cp9C5we3pGktK9RIHFtnOEWcfI8e8IpBZAl+0stqnqSgBHApgDoNtyHJuSAG4EcICqLrEdhoi2L0sbYwDAUal859lR65oOsR0kU8XrVhyjotfZzkFEZu3WseLgorbRTwH4ue0sYbX72pd3KW5vuk4ESwHsYztPWI1qX3lKRAf9f3v3HuRWWYYB/HnPSbYhlG2Sk2S3bBdYbKFFWikColwEBLkW8VIvo1W51ZEiKOIU/AMKylhAEbUXd2EccBgvg3VER0cd0XpDR1pB256TBWFWqAPT3c05uxXapZvz+kdaKHJrT5L9cpLnN5O/uvvl2W6m6ZPznffbJMBHTGeJq2xQOqzge79Q4PsADjCdpxmo6guqugLA0QB+bjiOCQ+jei/x1ara1tvsieKglYsxAJmlIX6fD7yLTCeJKue7hyCUH4DDtohaRs8zG9N531sZqjwMwXGm88RVwS8tmuxIegCWo3orDe2n/OhjPfmyt06hPwVkluk8cSRYn3AC72pbdZMC55rO04xU9QlVvQDAOQAeMp1nCvwDwAcAvE1VOf2dKCZavBgDAKZD8eNC2V0hgJgOsz/6hoZSlgqHbRG1kIJfumAilWaZq0FhxJuZD0r3V8scek3niSMBrIJfWgqr4kHwPtN54qoYuMc4QfdDorgTwHTTeZqdqv5KVU8CcCaABwGo4Uj19jcA7wWwUFXXqWqr/XxELa1drkKKityY870je5876JKnZ82Kxb0/2zufXwsRXk0iagGFEW+m2rgVwBLTWeJKACvvly5TG7dDtdN0nrjKBlve4sAaUOAE01niqueZjemJVPoGQK4FlB9w7SdVfRDAgyIyB8Clux95s6ki2wngZwDuVNVWvhp+iukAu3EILTVMO1wxfpEAH95x4PbfFofdbtNZ3ohT9j7HYVtE8SeA5APv42pjM1iKI8v5gwsc3/uzQvsBsBRHsGcLv63WBihLcVQF3zt/IpV2wV0fNVPVx1X1OlR3flwE4D4AY2ZT7ZMdqA5N/CiAoqp+sMVLMdA8uy6bJQe1oHa5Yry3E8OEbCiMDV40POPIDabDvJpCMHi6CG4znYOIapPzvaMdYADVyawUQe/WrQfsTI8vt0SuB9BhOk9cFX3vvDCVXg3gMNNZ4qo47HaHCbkN/ICr7lR1J4AHADwgItMAvBPAuwCcAWAhmuMDiC2obv/+LYDfqOpzhvNMtWaZLM7zsalh2rEYA0CPhuEfC37p0uHs3O+ZDrO3nO8eYkF+iPb93RDFXt/QUOq/nc9fxzJXm0JQOk2naz9UjjCdJa66tm3uqiTt28EyF5kA4gTeEiTkDgCO6TytTlUnAPx69wMikgFwPIBjUS3JCwH0AUg2KEII4CkAjwJ4ZPfjYVV9tkHPFxd/BXCq6RCofjBB1BDtXL5SCr0v73sLRrPzrtcmGADRNzSUsjplHYTDtojiqhh4p4YztB+QuaazxNWMcTeXqOArAllqOktcvVjmkjbLXA2K494cp6L9gJxuOktDXSXTMIke0zFejX4aAPDE7sf9ADC8A/Y9gzh4cxm923ag97ldyL8QIrsrRGZXiKwqkhVFJ6rbbm0FRKrnCcMWjAlQSVjwkxaCaTb8AxIYzaew9cgMnl5yJLb2HYRd/xcjjSvk8Kn7qZvP7BmoPLUdT5jOMd9Bot1/FwCAF1DB3fpv0zFaTTsXY6D6D+byfFA6vGfHc5/8z8y3Gt2esb1z5xoe3UIUT5mxTVk7tFcK5PLq/8Fof+0pcx0qX9P4DuIxrjjuzXEm5dsQnGE6S1wJNiYdP30NgJsAmWY6T8PtwlEI8XfTMfZVoQP4wvwGPkGlgWvH1OMfMp3gRXeigjtNhzDOxjYAXaZjtJp2L8YAAFVdvDOVnpPz3feUs0c9ZSKDE3ifFcHFJp6biGrjlN3FCUmsBo9Wi6w47s52QlkLxZnGt+/E1MvKnGjrl7kGKfruKQ7S/QDmmc5CRERTh8V4NwGOEchf8qNbLhpx3jylh7HnfPdkC8JhW0Qx0z32+OGT4eRaEXm36Sxx9VKZkxUAUqbzxBXLXO1evuuDk2+JiNpNWx3XtA8OhmX9Ie+7H5uqJ8z57iGWWuvQuCESRFRngvUJJ/Cungwn/wmApTiinD94kuOnHwGwEizFkWSDRzP5cukbIWQ9WIojc8ru4kQlWdp9XztLMRFRG+IV41dKAfLdvO8dPZqd90WtTidsiL6hoZSVsX4EaLFRz0FE9VUY8451wq67UJ2QShFkg0czdpi6yRK9EvyANjKn7C62kVoF4XtIVJmxwb5EWFkrImc3wQxOIiIyiMX41QmA5U7gzu6emPzEs10LGnJW3fbMjtVQHN+ItYmovpzyvzoFk1+CYBma40zNWCr4pUU2OtZAdJbpLHGVGRvsS4a6RkTOYZmLRrA+kQu6liUUXwZkuuk8RERkHovx61F5f6UjOScbeBf6mXl1HYnuBN7VoriknmsSUWMU/NIiEV0NoNd0lrjKjz7WA6l8C4L3cqdqNHuXOQVY5iIqBu5CJ+wa4CkQRES0NxbjN6DAgoRiQzHw3r8tM+8P9Vgz5w+eZAEctkUvEVzm+C5fEzWw1FoznJv7tXqu6ZT/OUskuQrAe+q57msSzHd819g5kQLxR7Lz6loWBOsTuXL3VWLpzQAOrOfar0VDfcDx3YmpeK5XD4Blo7mjflnPJfOjW47PWV0DAhxTz3VfxxLHd8+doud6BUvkd8OZeZfVc83CyOBBaustgCyDcAs/ERG9HIvxPlAgr4pf54PSp0Yyc++tZS2nvLnXQuLHEHTUKx/Fn0AzAA+sr4WKZuu1lgBW3i9dJpK8HUBnvdbdB9PE4OtAgJF6rpcNtrzFQfddEJ3qW0Z6xOBVaYXU7QOAnmc2pidS6RtgWdfK1G7h7xTIVL72XyZUePVcr+CXFqmtqwAcUs91iYiodbAY77tpUL0nXy4dO5qb+7koQ7n6hoZSkkmsg3JQClGzyvmDCxyE/QqcaDpLXO0pczasawHl/dgRFXzvfE2lVwM41HSWuCqMeDPVxq0AlpjOQkREzY3FeH+JXpXzvdmOJj8ymps9vj/fymFbRM2rd+vWA3amx5dbItcD3NERVdH3zgtT6TVgmYusOOx2hwm5DSxzkQkgeb90udqY6l0fREQUUyzGEQhwHmTXn7JB6UI/M3doX74nH7ifgQqHbRE1oUJQOk2naz9UjjCdJa66tm3uqiTt28EyF5kA4gTeEiTk6wBypvPEVc4vzXeg/Qq83XQWIiKKDxbj6ObbqhsKQekDw5m561/vC6vDtuSrU5SLiPbRjHE3l6jgKwJZajpLXL1Y5pL2HQAc03niqjjuzXEq2g/I6aazxBV3fRARUS04lbE2jqr+ygnci1/rCwoj3kwL4f3gmzRR0xBA8oH38Y6KDLIUR1cc9+Y45dJvoLgXLMWR9A0NpQpld0VYwSaW4ugKQemdOw7c/oiK3Ai+3xIRUQS8Yly7DlH5juO7J5az25YpTpvc8wd9Q0MpzeAnUMw0GZCIXlIcd2c7oayF4kw1HSamBBuTjp++BsBNEJ1mOk9cFX33lHAGBgCZazpLXGXGNmXt0F4pkMvBA7KJiKgGLMZ1IpCljl88NIcnP1TOHj4GAP/N7FgFxQmmsxHR3mVOVgBImc4TVznfPdlBegDAPNNZ4oplrj6csrs4IYnVAAqmsxARUfyxGNeVnG3JxN8KI4MXqq1nAbjUdCIiqt7n7yDdD+DNprPEVTZ4NGOHqZsskSvB23Aic8ru4gSSqyA8ti+qrrHNb6qovVZEzjKdhYiIWgeLcb0pjlA7fAjAQaajELW7nP/kDEtfuNkSZZmrQcEvLbIxbS1Ee0xniavM2GBfIqysFZGzAW7ij0KwMZkL0leI2rcAONB0HiIiai0sxo3BYzaIDCv4pUUWwjUQmWU6S1xlxgb7kqGuUeg5prPElWB9Ihd0LUsovgzIdNN54sopl97hSHoA3PVBREQNwmJMRC0lP/pYD6TyTQjex9s3o9m7zCnAMhdRMXAXOmHXAATHmc4SV3t2fYjoMgC26TxERNS6WIyJqEWoVfBLS2HpV8FbGSIrBu4xDroHoHq86SxxJZam8763EpBrISxzUVV3fehqCHpNZyEiotbHYkzUHHjkTc3k8wrl+aU1UCCrKhsAZZmrheJu8CzdmghwlkLPN52DiIjaB4sxUXOYMB2gBbCI1I6FuD74Wqwd/w6JiGhKcUorERERERERtTUWYyIiIiIiImprLMZERERERETU1liMiYiIiIiIqK2xGBMREREREVFbYzEmIiIiIiKitsZiTERERERERG2NxZiIiIiIiIjaGosxERERERERtTUWYyIiIiIiImprLMZERERERETU1liMiYiIiIiIqK2xGBMREREREVFb+x8UMwtMNtR3TAAAAABJRU5ErkJggg==;" parent="bxKveWsEymNf4CmPTTgD-6" vertex="1">
          <mxGeometry x="12" y="10" width="292.73" height="70" as="geometry" />
        </mxCell>
        <mxCell id="bxKveWsEymNf4CmPTTgD-13" value="&lt;b style=&quot;&quot;&gt;&lt;font color=&quot;#13eed6&quot;&gt;Найти&lt;/font&gt;&lt;/b&gt;" style="html=1;shadow=0;dashed=0;shape=mxgraph.bootstrap.rrect;rSize=5;fontSize=14;fontColor=#ffffff;strokeColor=#C2DAD8;fillColor=default;strokeWidth=2;" parent="bxKveWsEymNf4CmPTTgD-6" vertex="1">
          <mxGeometry x="1" width="70" height="40" relative="1" as="geometry">
            <mxPoint x="-891" y="25" as="offset" />
          </mxGeometry>
        </mxCell>
        <mxCell id="bxKveWsEymNf4CmPTTgD-25" value="" style="verticalLabelPosition=bottom;shadow=0;dashed=0;align=center;html=1;verticalAlign=top;strokeWidth=1;shape=mxgraph.mockup.navigation.scrollBar;strokeColor=#999999;barPos=82.1;fillColor2=#99ddff;strokeColor2=none;direction=north;" parent="bxKveWsEymNf4CmPTTgD-1" vertex="1">
          <mxGeometry x="1880" y="120" width="20" height="1190" as="geometry" />
        </mxCell>
        <mxCell id="bxKveWsEymNf4CmPTTgD-4" value="" style="rounded=0;whiteSpace=wrap;html=1;fillColor=#A2ACB0;fontColor=#333333;strokeColor=#666666;" parent="bxKveWsEymNf4CmPTTgD-1" vertex="1">
          <mxGeometry x="310" y="230" width="1280" height="1090" as="geometry" />
        </mxCell>
        <mxCell id="z07lS_XujqSLcn3PsR4L-3" value="" style="rounded=0;whiteSpace=wrap;html=1;fillColor=#fff2cc;strokeColor=#d6b656;" parent="bxKveWsEymNf4CmPTTgD-1" vertex="1">
          <mxGeometry x="330" y="250" width="450" height="300" as="geometry" />
        </mxCell>
        <mxCell id="z07lS_XujqSLcn3PsR4L-4" value="" style="rounded=0;whiteSpace=wrap;html=1;strokeColor=#8f8f8f;" parent="bxKveWsEymNf4CmPTTgD-1" vertex="1">
          <mxGeometry x="780" y="250" width="790" height="300" as="geometry" />
        </mxCell>
        <mxCell id="z07lS_XujqSLcn3PsR4L-5" value="" style="rounded=0;whiteSpace=wrap;html=1;fillColor=#fff2cc;strokeColor=#d6b656;" parent="bxKveWsEymNf4CmPTTgD-1" vertex="1">
          <mxGeometry x="330" y="570" width="450" height="300" as="geometry" />
        </mxCell>
        <mxCell id="z07lS_XujqSLcn3PsR4L-6" value="" style="rounded=0;whiteSpace=wrap;html=1;strokeColor=#8f8f8f;" parent="bxKveWsEymNf4CmPTTgD-1" vertex="1">
          <mxGeometry x="780" y="570" width="790" height="300" as="geometry" />
        </mxCell>
        <mxCell id="z07lS_XujqSLcn3PsR4L-7" value="" style="rounded=0;whiteSpace=wrap;html=1;fillColor=#fff2cc;strokeColor=#d6b656;" parent="bxKveWsEymNf4CmPTTgD-1" vertex="1">
          <mxGeometry x="330" y="890" width="450" height="300" as="geometry" />
        </mxCell>
        <mxCell id="z07lS_XujqSLcn3PsR4L-8" value="" style="rounded=0;whiteSpace=wrap;html=1;strokeColor=#8f8f8f;" parent="bxKveWsEymNf4CmPTTgD-1" vertex="1">
          <mxGeometry x="780" y="890" width="790" height="300" as="geometry" />
        </mxCell>
        <mxCell id="z07lS_XujqSLcn3PsR4L-9" value="" style="image;aspect=fixed;html=1;points=[];align=center;fontSize=12;image=img/lib/azure2/general/Image.svg;imageAspect=0;expand=0;resizeWidth=1;resizeHeight=1;" parent="bxKveWsEymNf4CmPTTgD-1" vertex="1">
          <mxGeometry x="452.5" y="330" width="205.01" height="140.94" as="geometry" />
        </mxCell>
        <mxCell id="z07lS_XujqSLcn3PsR4L-10" value="" style="image;aspect=fixed;html=1;points=[];align=center;fontSize=12;image=img/lib/azure2/general/Image.svg;imageAspect=0;expand=0;resizeWidth=1;resizeHeight=1;" parent="bxKveWsEymNf4CmPTTgD-1" vertex="1">
          <mxGeometry x="452.5" y="649.53" width="205.01" height="140.94" as="geometry" />
        </mxCell>
        <mxCell id="z07lS_XujqSLcn3PsR4L-11" value="" style="image;aspect=fixed;html=1;points=[];align=center;fontSize=12;image=img/lib/azure2/general/Image.svg;imageAspect=0;expand=0;resizeWidth=1;resizeHeight=1;" parent="bxKveWsEymNf4CmPTTgD-1" vertex="1">
          <mxGeometry x="452.5" y="969.53" width="205.01" height="140.94" as="geometry" />
        </mxCell>
        <mxCell id="z07lS_XujqSLcn3PsR4L-12" value="&lt;font color=&quot;#030303&quot; face=&quot;Tahoma&quot;&gt;&lt;span style=&quot;font-size: 30px;&quot;&gt;Опрос&lt;/span&gt;&lt;/font&gt;" style="text;html=1;strokeColor=none;fillColor=none;align=center;verticalAlign=middle;whiteSpace=wrap;rounded=0;fillStyle=zigzag-line;" parent="bxKveWsEymNf4CmPTTgD-1" vertex="1">
          <mxGeometry x="780" y="250" width="790" height="60" as="geometry" />
        </mxCell>
      </root>
    </mxGraphModel>
  </diagram>
</mxfile>
